<?xml version="1.0" encoding="UTF-8" standalone="no"?>
<!DOCTYPE svg PUBLIC "-//W3C//DTD SVG 1.1//EN" "http://www.w3.org/Graphics/SVG/1.1/DTD/svg11.dtd">
<svg width="100%" height="100%" viewBox="0 0 1454 227" version="1.1" xmlns="http://www.w3.org/2000/svg" xmlns:xlink="http://www.w3.org/1999/xlink" xml:space="preserve" xmlns:serif="http://www.serif.com/" style="fill-rule:evenodd;clip-rule:evenodd;stroke-linejoin:round;stroke-miterlimit:2;">
    <g>
        <path d="M70.625,2L79.063,2C108.781,2 130.156,12.312 143.188,32.938C147.313,43.906 149.375,59.281 149.375,79.063L149.375,99.313L86.938,99.313L86.938,63.875C86.938,47.375 85.063,39.125 81.313,39.125C80.656,38.75 79.906,38.563 79.063,38.563L74,38.563C68,38.563 65,44.188 65,55.438L65,170.75C65,180.5 66.875,185.938 70.625,187.063C72.688,187.437 74.375,187.625 75.688,187.625L77.375,187.625C83.75,187.625 86.938,181.25 86.938,168.5L86.938,134.188L149.375,134.188L149.375,143.188C149.375,173 145.813,191.563 138.688,198.875C124.156,215.75 104.281,224.187 79.063,224.188L72.875,224.188C45.875,224.187 26,216.313 13.25,200.563C5.75,193.813 2,169.25 2,126.875L2,104.375C2,62.75 3.688,40.062 7.063,36.313C13.344,23.094 24.781,13.344 41.375,7.063C51.406,3.688 61.156,2 70.625,2Z" style="fill:none;fill-rule:nonzero;stroke:black;stroke-width:4px;"/>
        <path d="M194.938,4.953L284.375,4.953C285.313,4.953 286.438,10.953 287.75,22.953C289.25,29.141 300.125,94.578 320.375,219.266L263,219.266C262.063,219.266 261.125,213.078 260.188,200.703C259.813,200.703 258.875,193.578 257.375,179.328L236.563,179.328L236.563,178.766C237.688,164.984 239,153.172 240.5,143.328L252.875,143.328C252.875,141.828 249.313,112.203 242.188,54.453L241.625,54.453C241.625,57.266 235.063,112.203 221.938,219.266L163.438,219.266C163.531,217.578 174.031,146.141 194.938,4.953Z" style="fill:none;fill-rule:nonzero;stroke:black;stroke-width:4px;"/>
        <path d="M333.594,5.516L395.469,5.516L395.469,175.953L433.156,175.953L433.156,219.266L334.156,219.266L333.031,218.703L333.594,217.578L333.594,5.516Z" style="fill:none;fill-rule:nonzero;stroke:black;stroke-width:4px;"/>
        <path d="M447.5,5.516L509.375,5.516L509.375,175.953L547.063,175.953L547.063,219.266L448.063,219.266L446.938,218.703L447.5,217.578L447.5,5.516Z" style="fill:none;fill-rule:nonzero;stroke:black;stroke-width:4px;"/>
        <path d="M667.438,59.789L669.688,59.789C685.531,59.789 696.313,65.883 702.031,78.07C703.531,80.93 704.281,90.305 704.281,106.195L704.281,125.32C704.281,143.648 703.063,154.055 700.625,156.539C694.109,166.664 684.172,171.727 670.813,171.727L665.75,171.727C653.281,171.727 643.625,167.227 636.781,158.227C633.781,154.336 632.281,146.18 632.281,133.758L632.281,100.008C632.281,86.93 633.406,78.68 635.656,75.258C641.938,64.945 652.531,59.789 667.438,59.789ZM663.5,142.195C663.5,149.508 664.344,153.164 666.031,153.164L667.719,153.445L668.844,153.445C671.469,153.445 672.781,150.633 672.781,145.008C672.969,143.789 673.063,140.883 673.063,136.289L673.063,92.414C673.063,83.602 672.5,79.195 671.375,79.195C671.375,78.633 670.344,78.258 668.281,78.07C665.094,78.07 663.5,80.977 663.5,86.789L663.5,142.195Z" style="fill:none;fill-rule:nonzero;stroke:black;stroke-width:4px;"/>
        <path d="M710.398,61.828L762.992,61.828L762.992,83.484L741.617,83.484L741.617,103.734L760.742,103.734L760.742,123.703C760.742,124.078 760.555,124.266 760.18,124.266L741.617,124.266L741.617,169.266L710.398,169.266L710.398,61.828Z" style="fill:none;fill-rule:nonzero;stroke:black;stroke-width:4px;"/>
        <path d="M841.531,5.516L915.219,5.516C915.594,5.516 915.781,5.703 915.781,6.078C916.156,6.078 916.344,5.891 916.344,5.516C940.813,7.016 954.875,9.266 958.531,12.266C967.25,14.984 974.375,20.609 979.906,29.141C984.031,34.672 986.094,51.172 986.094,78.641L986.094,155.703C986.094,183.922 983.281,200.047 977.656,204.078C971,214.203 953.75,219.266 925.906,219.266L841.531,219.266L841.531,5.516ZM904.531,42.078L904.531,182.141L907.906,182.141C917.656,182.141 922.531,177.828 922.531,169.203C923.281,163.953 923.656,155.516 923.656,143.891L923.656,75.828C923.656,55.953 922.344,46.016 919.719,46.016C919.719,44.141 914.656,42.828 904.531,42.078Z" style="fill:none;fill-rule:nonzero;stroke:black;stroke-width:4px;"/>
        <path d="M999.172,4.953L1061.05,4.953L1061.05,166.953C1061.05,180.078 1063.3,186.641 1067.8,186.641L1069.48,186.641C1075.11,186.641 1077.92,182.141 1077.92,173.141C1078.3,170.891 1078.48,166.016 1078.48,158.516L1078.48,4.953L1140.36,4.953L1140.36,152.891C1140.36,172.484 1138.86,185.234 1135.86,191.141C1124.33,212.516 1103.14,223.203 1072.3,223.203L1071.73,223.203C1035.83,222.359 1012.95,210.922 1003.11,188.891C1000.48,184.016 999.172,170.703 999.172,148.953L999.172,4.953Z" style="fill:none;fill-rule:nonzero;stroke:black;stroke-width:4px;"/>
        <path d="M1155.27,4.953L1289.14,4.953C1289.89,5.047 1290.27,5.422 1290.27,6.078L1290.27,48.266L1253.7,48.266L1253.7,219.266L1191.83,219.266C1191.08,219.266 1190.7,218.891 1190.7,218.141L1190.7,48.266L1154.14,48.266L1154.14,6.078C1154.23,5.328 1154.61,4.953 1155.27,4.953Z" style="fill:none;fill-rule:nonzero;stroke:black;stroke-width:4px;"/>
        <path d="M1306.86,3.266L1361.98,3.266C1363.11,3.266 1368.55,19.578 1378.3,52.203C1395.17,103.016 1404.73,132.828 1406.98,141.641L1406.98,218.141C1406.98,218.891 1406.61,219.266 1405.86,219.266L1350.17,219.266C1349.42,219.266 1349.05,218.891 1349.05,218.141L1349.05,142.203C1349.05,141.828 1349.23,141.641 1349.61,141.641L1305.73,3.828L1306.86,3.266ZM1450.86,3.266C1451.61,3.359 1451.98,3.734 1451.98,4.391C1434.36,56.891 1421.23,97.016 1412.61,124.766L1411.48,124.766C1408.48,114.641 1399.86,87.828 1385.61,44.328C1388.98,28.578 1392.17,14.891 1395.17,3.266L1450.86,3.266Z" style="fill:none;fill-rule:nonzero;stroke:black;stroke-width:4px;"/>
    </g>
</svg>
